<?xml version="1.0" encoding="UTF-8"?>
<svg xmlns="http://www.w3.org/2000/svg" width="96" height="96" viewBox="0 0 96 96" fill="none">
  <rect width="96" height="96" rx="24" fill="#4285F4" opacity="0.1"/>
  <path d="M72 30H24C22.9 30 22 30.9 22 32V68C22 69.1 22.9 70 24 70H72C73.1 70 74 69.1 74 68V32C74 30.9 73.1 30 72 30Z" fill="#4285F4"/>
  <path d="M24 26C22.9 26 22 26.9 22 28V68C22 69.1 22.9 70 24 70H72C73.1 70 74 69.1 74 68V28C74 26.9 73.1 26 72 26H24ZM24 28H72V68H24V28Z" fill="#4285F4"/>
  <path d="M69 38H63C62.45 38 62 38.45 62 39V61C62 61.55 62.45 62 63 62H69C69.55 62 70 61.55 70 61V39C70 38.45 69.55 38 69 38Z" fill="#FFFFFF"/>
  <path d="M59 46H53C52.45 46 52 46.45 52 47V61C52 61.55 52.45 62 53 62H59C59.55 62 60 61.55 60 61V47C60 46.45 59.55 46 59 46Z" fill="#FFFFFF"/>
  <path d="M49 42H43C42.45 42 42 42.45 42 43V61C42 61.55 42.45 62 43 62H49C49.55 62 50 61.55 50 61V43C50 42.45 49.55 42 49 42Z" fill="#FFFFFF"/>
  <path d="M39 52H33C32.45 52 32 52.45 32 53V61C32 61.55 32.45 62 33 62H39C39.55 62 40 61.55 40 61V53C40 52.45 39.55 52 39 52Z" fill="#FFFFFF"/>
  <path d="M32 34L38 40" stroke="#FFFFFF" stroke-width="2" stroke-linecap="round"/>
  <path d="M38 34L32 40" stroke="#FFFFFF" stroke-width="2" stroke-linecap="round"/>
  <path d="M50 34L56 40" stroke="#FFFFFF" stroke-width="2" stroke-linecap="round"/>
  <path d="M56 34L50 40" stroke="#FFFFFF" stroke-width="2" stroke-linecap="round"/>
  <path d="M26 62L70 62" stroke="#FFFFFF" stroke-width="2" stroke-linecap="round"/>
</svg>